<?xml version="1.0" encoding="utf-8"?>
<!-- Generator: Adobe Illustrator 25.0.1, SVG Export Plug-In . SVG Version: 6.00 Build 0)  -->
<svg version="1.1" id="Logo" xmlns="http://www.w3.org/2000/svg" xmlns:xlink="http://www.w3.org/1999/xlink" x="0px" y="0px"
	 viewBox="0 0 1252 947" style="enable-background:new 0 0 1252 947;" xml:space="preserve">
<style type="text/css">
	.st0{fill:#49B7FB;}
</style>
<g>
	<g>
		<g>
			<path class="st0" d="M414.53,649.92C414.68,651.33,412.98,649.92,414.53,649.92L414.53,649.92z"/>
			<path class="st0" d="M509.51,359.06c0-74.79,4.17-127.88-12.36-195.18c-16.52-67.3-74.34-119.64-123.91-134.56
				c-49.57-14.97-95.03-18.73-156.96-14.97c-45.5,2.76-86.24,15.82-156.96,52.34c0,0,24.56,72.18,25.77,76.6
				c0.4-2.61,40.78-24.41,65.09-31.74c24.81-7.48,74.33-14.97,90.86-14.97c16.52,0,97.64,4.87,124.96,33
				c29.68,30.59,26.27,25.77,29.08,123.46c0,0-79.66,0.6-121,8.04c-41.29,7.48-107.38,22.45-140.43,37.42
				C70.53,327.07,18.05,395.68,12.87,457.51C7.15,525.91,30.4,575.89,58.88,603.66c28.43,27.83,91.31,68.66,182.17,53.69
				c90.86-14.92,132.55-54.75,156.96-89.7c1.56-2.26,7.99-2.61,8.29,0l8.24,82.27h100.7c2.16,0,7.33,1.81,6.68,0
				C509.51,614.66,509.51,430.74,509.51,359.06z M392.99,430.89c-0.3,36.31-15.52,58.97-31.29,80.11
				c-21.9,29.33-71.12,49.32-118.48,49.32c-47.41,0-71.12-14.11-90.86-38.77c-12.96-16.17-18.83-35.31-15.77-70.42
				c3.92-45.81,26.67-66.1,35.51-73.98c15.82-14.06,47.41-28.18,98.75-38.72c39.28-8.09,63.18-7.03,122.15-8.34
				C392.99,330.08,393.29,398.29,392.99,430.89z"/>
		</g>
	</g>
	<path class="st0" d="M501.85,14.53h156.09l222.75,502.32l209.75-502.32h151.21c0,0-250.06,517.4-290.97,593.97
		S838.2,799.93,776.84,845.87s-155.44,85.11-195.32,88.5l-35.77-96.55c0,0,87.92-30.23,118.6-53.2
		c40.91-30.63,51.13-38.29,81.81-68.91c15.78-15.75,37.79-44.54,45.51-61.35c7.76-16.89,7.36-35.25-0.88-52.01L501.85,14.53z"/>
</g>
</svg>
