<?xml version="1.0" encoding="utf-8"?>
<!-- Generator: Adobe Illustrator 25.0.1, SVG Export Plug-In . SVG Version: 6.00 Build 0)  -->
<svg version="1.1" id="Layer_1" xmlns="http://www.w3.org/2000/svg" xmlns:xlink="http://www.w3.org/1999/xlink" x="0px" y="0px"
	 viewBox="0 0 121 100" style="enable-background:new 0 0 121 100;" xml:space="preserve">
<style type="text/css">
	.st0{fill:#49B7FB;}
</style>
<g>
	<path class="st0" d="M113.21,0.3H8.01c-4.3,0.01-7.79,3.49-7.79,7.79v66.23c0.01,4.3,3.49,7.79,7.79,7.79h40.15l-2.6,7.79h-6.39
		c-1.08,0-1.95,0.87-1.95,1.95v3.9H19.7c-1.08,0-1.95,0.87-1.95,1.95c0,1.08,0.87,1.95,1.95,1.95h85.72c1.08,0,1.95-0.87,1.95-1.95
		c0-1.08-0.87-1.95-1.95-1.95H83.99v-3.9c0-1.08-0.87-1.95-1.95-1.95h-6.39l-2.6-7.79h40.15c4.3-0.01,7.79-3.49,7.79-7.79V8.09
		C120.99,3.79,117.51,0.31,113.21,0.3z M80.09,93.81v1.95H41.13v-1.95H80.09z M49.68,89.91l2.6-7.79h16.67l2.6,7.79H49.68z
		 M117.1,74.33c0,2.15-1.75,3.89-3.9,3.9H8.01c-2.15,0-3.89-1.75-3.9-3.9v-3.9H117.1V74.33z M33.25,49l-0.73,17.53h-2.27L29.52,49
		H33.25z M29.79,45.11l1.3-7.79h0.59l1.3,7.79H29.79z M31.39,33.42c-2.11,0-3.9-2.68-3.9-5.84c0-2,2.04-4.9,3.89-6.95
		c1.67,1.85,3.9,4.81,3.9,6.95C35.28,30.74,33.5,33.42,31.39,33.42z M52.59,29.52l0.23,0.46v1.49h-7.79v-1.49l0.23-0.46H52.59z
		 M47.2,25.63l1.72-3.44l1.72,3.44H47.2z M52.82,35.37v30.93c0,0.08,0.01,0.16,0.02,0.24h-7.83c0.01-0.08,0.02-0.16,0.02-0.24V35.37
		H52.82z M70.35,27.58h5.84v3.9h-1.95c-1.08,0-1.95,0.87-1.95,1.95s0.87,1.95,1.95,1.95h1.95v3.9h-5.84c-1.08,0-1.95,0.87-1.95,1.95
		c0,1.08,0.87,1.95,1.95,1.95h5.84v3.9h-1.95c-1.08,0-1.95,0.87-1.95,1.95s0.87,1.95,1.95,1.95h1.95v3.9h-5.84
		c-1.08,0-1.95,0.87-1.95,1.95s0.87,1.95,1.95,1.95h5.84v7.79H62.56V19.78h13.64v3.9h-5.84c-1.08,0-1.95,0.87-1.95,1.95
		S69.27,27.58,70.35,27.58z M93.73,50.95v15.34c0,0.08,0.01,0.16,0.02,0.24h-7.83c0.01-0.08,0.02-0.16,0.02-0.24V50.95H93.73z
		 M85.93,47.06v-1.49l3.9-7.79l3.9,7.79v1.49H85.93z M117.1,66.54h-19.5c0.01-0.08,0.02-0.16,0.02-0.24V45.11
		c0-0.3-0.07-0.6-0.2-0.87l-5.84-11.69c-0.48-0.96-1.65-1.35-2.62-0.87c-0.38,0.19-0.68,0.49-0.87,0.87l-5.84,11.69
		c-0.13,0.27-0.2,0.57-0.2,0.87v21.19c0,0.08,0.01,0.16,0.02,0.24h-1.97v-48.7c0-1.08-0.87-1.95-1.95-1.95H60.61
		c-1.08,0-1.95,0.87-1.95,1.95v48.7H56.7c0.01-0.08,0.02-0.16,0.02-0.24V29.52c0-0.3-0.07-0.6-0.2-0.87l-5.84-11.69
		c-0.48-0.96-1.65-1.35-2.62-0.87c-0.38,0.19-0.68,0.49-0.87,0.87l-5.84,11.69c-0.13,0.27-0.2,0.57-0.2,0.87v36.77
		c0,0.08,0.01,0.16,0.02,0.24h-4.72l0.81-19.4c0-0.04,0-0.09,0-0.13v-0.06c0-0.07-0.01-0.14-0.02-0.2v0l-1.8-10.81
		c2.26-1.71,3.78-4.81,3.78-8.35c0-5.01-5.8-10.55-6.47-11.17c-0.75-0.69-1.91-0.69-2.65,0c-0.66,0.62-6.47,6.16-6.47,11.17
		c0,3.54,1.51,6.64,3.78,8.35l-1.8,10.81v0c-0.01,0.07-0.02,0.14-0.02,0.2V47c0,0.05,0,0.09,0,0.13l0.81,19.4H4.12V8.09
		c0-2.15,1.75-3.89,3.9-3.9h105.2c2.15,0,3.89,1.75,3.9,3.9V66.54z"/>
	<path class="st0" d="M21.65,72.38H9.96c-1.08,0-1.95,0.87-1.95,1.95c0,1.08,0.87,1.95,1.95,1.95h11.69c1.08,0,1.95-0.87,1.95-1.95
		C23.6,73.25,22.72,72.38,21.65,72.38z"/>
	<path class="st0" d="M29.44,72.38h-1.95c-1.08,0-1.95,0.87-1.95,1.95c0,1.08,0.87,1.95,1.95,1.95h1.95c1.08,0,1.95-0.87,1.95-1.95
		C31.39,73.25,30.52,72.38,29.44,72.38z"/>
	<path class="st0" d="M48.92,37.32c-1.08,0-1.95,0.87-1.95,1.95v21.43c0,1.08,0.87,1.95,1.95,1.95s1.95-0.87,1.95-1.95V39.26
		C50.87,38.19,50,37.32,48.92,37.32z"/>
	<path class="st0" d="M89.83,52.9c-1.08,0-1.95,0.87-1.95,1.95v5.84c0,1.08,0.87,1.95,1.95,1.95c1.08,0,1.95-0.87,1.95-1.95v-5.84
		C91.78,53.77,90.91,52.9,89.83,52.9z"/>
	<path class="st0" d="M9.96,11.99h15.58c1.08,0,1.95-0.87,1.95-1.95s-0.87-1.95-1.95-1.95H9.96c-1.08,0-1.95,0.87-1.95,1.95
		S8.88,11.99,9.96,11.99z"/>
	<path class="st0" d="M9.96,17.83h3.9c1.08,0,1.95-0.87,1.95-1.95s-0.87-1.95-1.95-1.95h-3.9c-1.08,0-1.95,0.87-1.95,1.95
		S8.88,17.83,9.96,17.83z"/>
	<path class="st0" d="M103.47,62.64h7.79c1.08,0,1.95-0.87,1.95-1.95s-0.87-1.95-1.95-1.95h-7.79c-1.08,0-1.95,0.87-1.95,1.95
		S102.39,62.64,103.47,62.64z"/>
	<path class="st0" d="M109.31,56.8h1.95c1.08,0,1.95-0.87,1.95-1.95s-0.87-1.95-1.95-1.95h-1.95c-1.08,0-1.95,0.87-1.95,1.95
		S108.24,56.8,109.31,56.8z"/>
</g>
</svg>
