<?xml version="1.0" encoding="utf-8"?>
<!-- Generator: Adobe Illustrator 25.0.1, SVG Export Plug-In . SVG Version: 6.00 Build 0)  -->
<svg version="1.1" id="Layer_1" xmlns="http://www.w3.org/2000/svg" xmlns:xlink="http://www.w3.org/1999/xlink" x="0px" y="0px"
	 viewBox="0 0 105 102" style="enable-background:new 0 0 105 102;" xml:space="preserve">
<style type="text/css">
	.st0{fill:#49B7FB;}
</style>
<g>
	<g>
		<path class="st0" d="M52.49,1C24.06,1,1,23.95,1,52.27c0,22.65,14.75,41.86,35.23,48.64c2.58,0.47,3.51-1.11,3.51-2.47
			c0-1.22-0.05-4.44-0.07-8.72c-14.32,3.1-17.35-6.87-17.35-6.87c-2.34-5.92-5.72-7.5-5.72-7.5c-4.68-3.18,0.35-3.11,0.35-3.11
			c5.17,0.36,7.89,5.29,7.89,5.29c4.6,7.83,12.06,5.57,14.99,4.26c0.46-3.31,1.8-5.57,3.27-6.86c-11.43-1.3-23.46-5.69-23.46-25.33
			c0-5.6,2.01-10.17,5.3-13.76c-0.53-1.3-2.3-6.51,0.5-13.56c0,0,4.33-1.38,14.16,5.25c4.11-1.14,8.51-1.7,12.89-1.72
			c4.37,0.03,8.78,0.59,12.89,1.73c9.83-6.63,14.15-5.25,14.15-5.25c2.81,7.06,1.04,12.27,0.51,13.56c3.3,3.59,5.29,8.16,5.29,13.76
			c0,19.69-12.04,24.03-23.51,25.3c1.85,1.58,3.5,4.71,3.5,9.49c0,6.86-0.06,12.38-0.06,14.06c0,1.37,0.93,2.97,3.54,2.46
			c20.44-6.79,35.18-26,35.18-48.64C104,23.95,80.94,1,52.49,1z"/>
	</g>
</g>
</svg>
