<?xml version="1.0" encoding="utf-8"?>
<!-- Generator: Adobe Illustrator 25.0.1, SVG Export Plug-In . SVG Version: 6.00 Build 0)  -->
<svg version="1.1" id="Layer_1" xmlns="http://www.w3.org/2000/svg" xmlns:xlink="http://www.w3.org/1999/xlink" x="0px" y="0px"
	 viewBox="0 0 124 102" style="enable-background:new 0 0 124 102;" xml:space="preserve">
<style type="text/css">
	.st0{fill:#49B7FB;}
</style>
<path class="st0" d="M1.13,101h24.33V29.59H1.13V101z M95.92,27.12c-11.81,0-22.37,3.8-29.87,12.18v-9.94H41.63V101h24.42V62.26
	c0-8.19,8.52-16.18,19.19-16.18s13.3,7.99,13.3,15.98v38.94h24.33V60.46C122.88,32.31,107.74,27.12,95.92,27.12z M13.18,22.45
	c6.72,0,12.18-4.81,12.18-10.73S19.91,1,13.18,1S1,5.81,1,11.73S6.46,22.45,13.18,22.45z"/>
</svg>
