<?xml version="1.0" encoding="utf-8"?>
<!-- Generator: Adobe Illustrator 25.0.1, SVG Export Plug-In . SVG Version: 6.00 Build 0)  -->
<svg version="1.1" id="Montor" xmlns="http://www.w3.org/2000/svg" xmlns:xlink="http://www.w3.org/1999/xlink" x="0px" y="0px"
	 viewBox="0 0 1920 1080" style="enable-background:new 0 0 1920 1080;" xml:space="preserve">
<style type="text/css">
	.st0{fill:url(#SVGID_1_);stroke:url(#SVGID_2_);stroke-miterlimit:10;}
	.st1{fill:url(#SVGID_3_);stroke:url(#SVGID_4_);stroke-miterlimit:10;}
	.st2{fill:url(#SVGID_5_);stroke:url(#SVGID_6_);stroke-miterlimit:10;}
	.st3{fill:url(#SVGID_7_);stroke:url(#SVGID_8_);stroke-miterlimit:10;}
	.st4{fill:url(#SVGID_9_);stroke:url(#SVGID_10_);stroke-miterlimit:10;}
	.st5{fill:#FFFFFF;stroke:url(#SVGID_11_);stroke-miterlimit:10;}
</style>
<g>
	<radialGradient id="SVGID_1_" cx="959.365" cy="504.3159" r="516.0197" gradientUnits="userSpaceOnUse">
		<stop  offset="0" style="stop-color:#FFFFFF"/>
		<stop  offset="1" style="stop-color:#000000"/>
	</radialGradient>
	<radialGradient id="SVGID_2_" cx="959.365" cy="504.3159" r="516.4872" gradientUnits="userSpaceOnUse">
		<stop  offset="0" style="stop-color:#FFFFFF"/>
		<stop  offset="1" style="stop-color:#000000"/>
	</radialGradient>
	<path class="st0" d="M990.86,619.35c128.59,1.25,590.93,7.1,631.28,7.61c1.55,0.02,2.82-1.23,2.82-2.79V207.86
		c0-1.57-1.29-2.83-2.85-2.79c-45.48,1.1-620.02,14.92-662.53,14.79c-43.44-0.14-601.94-12.26-662.89-14.73
		c-1.58-0.06-2.9,1.2-2.9,2.79v416.24c0,1.56,1.27,2.81,2.82,2.79c44.62-0.61,485.59-5.9,622.98-7.42c0.56-0.01,1.11,0.14,1.57,0.46
		c17.36,12.2,13.21,66.7,9.3,93.52c-1.29,8.86-7.13,18.79-16,20c-71.6,9.75-383.45,49-404.91,52.77c-0.01,0-0.01,0-0.02,0
		c-0.96,0.17-1.78,0.83-2.09,1.75c-2.59,7.67,3.48,15.7,11.74,15.09l435.64-32.11c1.68-0.12,3.37-0.12,5.06,0l441.34,32.53
		c6.12,0.45,10.68-5.53,8.63-11.31l-0.6-1.69c-1.09-3.08-3.85-5.26-7.1-5.6c-42.84-4.51-332.23-39.87-402.69-52.44
		c-8.98-1.6-18.29-6.9-19-16c-2.15-27.63-2.85-84.12,8.36-96.28C989.33,619.65,990.08,619.34,990.86,619.35z M304.45,612.7h-0.72
		c0.13-0.01,0.37-0.01,0.72-0.01V221.41c0-1.58,1.31-2.85,2.89-2.79c60.14,2.31,608.92,13.64,651.61,13.76
		c41.76,0.12,606.18-12.78,651.24-13.81c1.57-0.04,2.85,1.22,2.85,2.79v388.52c0,1.55-1.26,2.81-2.82,2.79
		c-45.3-0.55-621.99-7.48-651.77-7.33c-29.73,0.15-628.77,6.97-654,7.35V612.7z"/>
	<radialGradient id="SVGID_3_" cx="293.415" cy="626.99" r="0.2582" gradientUnits="userSpaceOnUse">
		<stop  offset="0" style="stop-color:#FFFFFF"/>
		<stop  offset="1" style="stop-color:#000000"/>
	</radialGradient>
	<radialGradient id="SVGID_4_" cx="293.6458" cy="626.983" r="0.5786" gradientUnits="userSpaceOnUse">
		<stop  offset="0" style="stop-color:#FFFFFF"/>
		<stop  offset="1" style="stop-color:#000000"/>
	</radialGradient>
	<path class="st1" d="M293.05,627c0.13-0.01,0.37-0.01,0.73-0.02V627H293.05z"/>
	<radialGradient id="SVGID_5_" cx="304.09" cy="612.695" r="0.2546" gradientUnits="userSpaceOnUse">
		<stop  offset="0" style="stop-color:#FFFFFF"/>
		<stop  offset="1" style="stop-color:#000000"/>
	</radialGradient>
	<radialGradient id="SVGID_6_" cx="304.3208" cy="612.695" r="0.5705" gradientUnits="userSpaceOnUse">
		<stop  offset="0" style="stop-color:#FFFFFF"/>
		<stop  offset="1" style="stop-color:#000000"/>
	</radialGradient>
	<path class="st2" d="M303.73,612.7c0.13-0.01,0.37-0.01,0.72-0.01v0.01H303.73z"/>
	<radialGradient id="SVGID_7_" cx="958.7451" cy="415.6154" r="483.1827" gradientUnits="userSpaceOnUse">
		<stop  offset="0" style="stop-color:#FFFFFF"/>
		<stop  offset="1" style="stop-color:#000000"/>
	</radialGradient>
	<radialGradient id="SVGID_8_" cx="958.7451" cy="415.6154" r="483.6233" gradientUnits="userSpaceOnUse">
		<stop  offset="0" style="stop-color:#FFFFFF"/>
		<stop  offset="1" style="stop-color:#000000"/>
	</radialGradient>
	<path class="st3" d="M1613.04,221.35v388.52c0,1.55-1.26,2.81-2.82,2.79c-45.3-0.55-621.99-7.48-651.77-7.33
		c-29.01,0.15-600.15,6.64-651.18,7.31c-1.55,0.02-2.82-1.23-2.82-2.79V221.41c0-1.58,1.31-2.85,2.89-2.79
		c60.14,2.31,608.92,13.64,651.61,13.76c41.76,0.12,606.18-12.78,651.24-13.81C1611.75,218.53,1613.04,219.79,1613.04,221.35z"/>
	<radialGradient id="SVGID_9_" cx="304.09" cy="612.695" r="0.2546" gradientUnits="userSpaceOnUse">
		<stop  offset="0" style="stop-color:#FFFFFF"/>
		<stop  offset="1" style="stop-color:#000000"/>
	</radialGradient>
	<radialGradient id="SVGID_10_" cx="304.3208" cy="612.695" r="0.5705" gradientUnits="userSpaceOnUse">
		<stop  offset="0" style="stop-color:#FFFFFF"/>
		<stop  offset="1" style="stop-color:#000000"/>
	</radialGradient>
	<path class="st4" d="M303.73,612.7c0.13-0.01,0.37-0.01,0.72-0.01v0.01H303.73z"/>
	<radialGradient id="SVGID_11_" cx="958.7451" cy="415.6154" r="483.6233" gradientUnits="userSpaceOnUse">
		<stop  offset="0" style="stop-color:#FFFFFF"/>
		<stop  offset="1" style="stop-color:#000000"/>
	</radialGradient>
	<path class="st5" d="M1613.04,221.35v388.52c0,1.55-1.26,2.81-2.82,2.79c-45.3-0.55-621.99-7.48-651.77-7.33
		c-29.01,0.15-600.15,6.64-651.18,7.31c-1.55,0.02-2.82-1.23-2.82-2.79V221.41c0-1.58,1.31-2.85,2.89-2.79
		c60.14,2.31,608.92,13.64,651.61,13.76c41.76,0.12,606.18-12.78,651.24-13.81C1611.75,218.53,1613.04,219.79,1613.04,221.35z"/>
</g>
</svg>
