<?xml version="1.0" encoding="utf-8"?>
<!-- Generator: Adobe Illustrator 25.0.1, SVG Export Plug-In . SVG Version: 6.00 Build 0)  -->
<svg version="1.1" id="Layer_1" xmlns="http://www.w3.org/2000/svg" xmlns:xlink="http://www.w3.org/1999/xlink" x="0px" y="0px"
	 viewBox="0 0 719 723" style="enable-background:new 0 0 719 723;" xml:space="preserve">
<style type="text/css">
	.st0{fill:#FEF0AE;}
	.st1{fill:#FEE97D;}
	.st2{fill:#FEDF30;}
	.st3{fill:#FEE45A;}
</style>
<g>
	<circle id="Moon" class="st0" cx="359.59" cy="359.41" r="359.59"/>
	<path id="Half_Moon" class="st1" d="M215.5,359.41c0-161.06,105.91-297.38,251.86-343.16C433.35,5.58,397.13-0.18,359.59-0.18
		C160.99-0.18,0,160.81,0,359.41S160.99,719,359.59,719c37.54,0,73.76-5.76,107.78-16.43C321.42,656.78,215.5,520.47,215.5,359.41
		L215.5,359.41z"/>
	<g id="Spots">
		<g>
			<path class="st1" d="M719.11,365.42h0.01c-0.84,52.04-12.75,101.4-33.47,145.81l-0.03-0.01c-27.76-11.24-47.34-38.43-47.34-70.23
				c0-41.83,33.92-75.75,75.75-75.75C715.74,365.25,717.42,365.32,719.11,365.42L719.11,365.42z"/>
			<path class="st2" d="M359.59,662.63c31.33,0,57.66,21.45,65.07,50.49c-21.1,3.86-42.85,5.88-65.07,5.88
				c-22.22,0-43.97-2.02-65.07-5.88C301.93,684.08,328.26,662.63,359.59,662.63L359.59,662.63z"/>
			<g>
				<path class="st1" d="M446.38,502.22c24.21,0,43.85,19.64,43.85,43.85c0,24.23-19.64,43.85-43.85,43.85
					c-24.23,0-43.86-19.62-43.86-43.85C402.51,521.85,422.15,502.22,446.38,502.22z"/>
				<circle class="st1" cx="525.89" cy="430.81" r="31.01"/>
				<circle class="st1" cx="459.1" cy="264.84" r="83.45"/>
			</g>
			<circle class="st3" cx="215.5" cy="430.14" r="48.03"/>
			<path class="st2" d="M215.5,478.18c6.66,0,13-1.36,18.77-3.81c-9.86-29.24-16.06-60.17-18.06-92.24c-0.24,0-0.47-0.02-0.71-0.02
				c-26.54,0-48.03,21.51-48.03,48.03C167.47,456.67,188.97,478.18,215.5,478.18L215.5,478.18z"/>
			<path class="st2" d="M126.35,278.07c16.2,0,29.33,13.13,29.33,29.31c0,16.2-13.13,29.33-29.33,29.33s-29.31-13.13-29.31-29.33
				C97.04,291.2,110.16,278.07,126.35,278.07z"/>
			<path class="st2" d="M251.74,16.29c3.25,12.01,5.01,24.65,5.01,37.69c0,79.35-64.33,143.68-143.69,143.68
				c-23.82,0-46.29-5.81-66.07-16.06h-0.01C91.49,103.48,164.45,43.68,251.74,16.27V16.29z"/>
		</g>
	</g>
</g>
</svg>
