<?xml version="1.0" encoding="utf-8"?>
<!-- Generator: Adobe Illustrator 25.0.1, SVG Export Plug-In . SVG Version: 6.00 Build 0)  -->
<svg version="1.1" id="Layer_1" xmlns="http://www.w3.org/2000/svg" xmlns:xlink="http://www.w3.org/1999/xlink" x="0px" y="0px"
	 viewBox="0 0 126 100" style="enable-background:new 0 0 126 100;" xml:space="preserve">
<style type="text/css">
	.st0{fill:#49B7FB;}
</style>
<path class="st0" d="M124.21,11.84c-4.58,2.01-9.45,3.34-14.54,3.98c5.23-3.12,9.22-8.03,11.1-13.95c-4.88,2.91-10.26,4.96-16,6.11
	C100.14,3.05,93.54,0,86.34,0C72.37,0,61.13,11.34,61.13,25.24c0,2,0.17,3.92,0.58,5.75C40.73,29.97,22.17,19.92,9.7,4.6
	c-2.18,3.78-3.45,8.1-3.45,12.75c0,8.74,4.5,16.48,11.21,20.97c-4.05-0.08-8.03-1.25-11.4-3.11c0,0.08,0,0.18,0,0.28
	c0,12.26,8.75,22.45,20.22,24.79c-2.05,0.56-4.29,0.83-6.62,0.83c-1.62,0-3.25-0.09-4.78-0.43c3.27,9.99,12.55,17.34,23.58,17.58
	c-8.58,6.72-19.48,10.76-31.28,10.76c-2.07,0-4.05-0.09-6.04-0.35C12.31,95.88,25.56,100,39.84,100c46.43,0,71.82-38.46,71.82-71.8
	c0-1.12-0.04-2.19-0.09-3.26C116.57,21.38,120.78,16.95,124.21,11.84z"/>
</svg>
