<?xml version="1.0" encoding="utf-8"?>
<!-- Generator: Adobe Illustrator 25.0.1, SVG Export Plug-In . SVG Version: 6.00 Build 0)  -->
<svg version="1.1" id="Layer_1" xmlns="http://www.w3.org/2000/svg" xmlns:xlink="http://www.w3.org/1999/xlink" x="0px" y="0px"
	 viewBox="0 0 100 100" style="enable-background:new 0 0 100 100;" xml:space="preserve">
<style type="text/css">
	.st0{fill:#49B7FB;}
</style>
<g>
	<path class="st0" d="M35.42,51.38c0,0.14-0.24,0.16-0.26,0.02l-1.1-6.61c-0.28-1.7-1.74-2.93-3.46-2.93
		c-1.72,0-3.18,1.23-3.46,2.93l-1.1,6.61c-0.02,0.14-0.27,0.11-0.26-0.02V38.63h-3.22v12.74c0,1.85,1.51,3.35,3.35,3.35
		c1.65,0,3.04-1.18,3.31-2.8l1.1-6.61c0.05-0.28,0.52-0.28,0.57,0l1.1,6.61c0.27,1.62,1.66,2.8,3.3,2.8c1.85,0,3.35-1.5,3.35-3.35
		V38.63h-3.22L35.42,51.38z"/>
	<path class="st0" d="M54.73,51.38c0,0.14-0.24,0.16-0.26,0.02l-1.1-6.61c-0.28-1.7-1.74-2.93-3.46-2.93
		c-1.72,0-3.18,1.23-3.46,2.93l-1.1,6.61c-0.03,0.14-0.27,0.11-0.26-0.02V38.63h-3.22v12.74c0,1.85,1.51,3.35,3.35,3.35
		c1.65,0,3.04-1.18,3.31-2.8l1.1-6.61c0.05-0.28,0.52-0.28,0.57,0l1.1,6.61c0.27,1.62,1.66,2.8,3.3,2.8c1.85,0,3.35-1.5,3.35-3.35
		V38.63h-3.22V51.38z"/>
	<path class="st0" d="M16.1,70.83h3.22v3.22H16.1V70.83z"/>
	<path class="st0" d="M9.66,70.83h3.22v3.22H9.66V70.83z"/>
	<path class="st0" d="M22.54,70.83h3.22v3.22h-3.22V70.83z"/>
	<path class="st0" d="M91.76,16.1H70.25C68.06,6.88,59.78,0,49.9,0S31.75,6.88,29.56,16.1H8.05C3.61,16.1,0,19.71,0,24.15v48.29
		c0,4.44,3.61,8.05,8.05,8.05h28.91c-0.27,2.57-1.6,4.9-3.7,6.44h-7.51c-2.66,0-4.83,2.17-4.83,4.83v3.22
		c0,2.66,2.17,4.83,4.83,4.83h48.29c2.66,0,4.83-2.17,4.83-4.83v-3.22c0-2.66-2.17-4.83-4.83-4.83h-7.51
		c-2.09-1.54-3.43-3.87-3.7-6.44h28.91c4.44,0,8.05-3.61,8.05-8.05V24.15C99.81,19.71,96.2,16.1,91.76,16.1z M91.76,19.32
		c2.66,0,4.83,2.17,4.83,4.83v32.71l-3.22-0.54V25.76c0-1.78-1.44-3.22-3.22-3.22H70.76c0.04-0.53,0.07-1.07,0.07-1.61
		c0-0.54-0.04-1.08-0.08-1.61H91.76z M49.9,3.22c1.73,0,3.57,2.46,4.84,6.44h-9.69C46.33,5.68,48.17,3.22,49.9,3.22L49.9,3.22z
		 M55.57,12.88c0.39,1.95,0.66,4.11,0.74,6.44H43.5c0.08-2.33,0.35-4.49,0.74-6.44H55.57z M67.53,19.32h-8
		c-0.07-2.28-0.3-4.45-0.66-6.44h6.79C66.66,14.84,67.32,17.02,67.53,19.32z M90.15,55.78l-6.44-1.07V37.03
		c0-2.66-2.17-4.83-4.83-4.83H67.5c1.28-1.98,2.2-4.16,2.74-6.44h19.91V55.78z M74.05,38.63v12.74c0,0.14-0.24,0.16-0.26,0.02
		l-1.1-6.61c-0.28-1.7-1.74-2.93-3.46-2.93s-3.18,1.23-3.46,2.93l-1.1,6.61c-0.03,0.14-0.26,0.11-0.26-0.02V38.63h-3.22v12.74
		c0,1.85,1.51,3.35,3.35,3.35c1.65,0,3.04-1.18,3.31-2.8l1.1-6.61c0.05-0.28,0.52-0.28,0.57,0l1.1,6.61
		c0.18,1.07,0.84,1.93,1.74,2.41l0.6,3.62H20.93c-0.89,0-1.61-0.72-1.61-1.61V37.02c0-0.89,0.72-1.61,1.61-1.61h57.95
		c0.89,0,1.61,0.72,1.61,1.61v17.15l-4-0.67c0.48-0.58,0.78-1.32,0.78-2.13V38.63L74.05,38.63z M40.28,22.54
		c0.12,3.45,0.61,6.77,1.43,9.66h-5.42c-2.29-2.76-3.7-6.12-4.02-9.66H40.28z M45.07,32.2c-0.9-2.79-1.44-6.14-1.57-9.66h12.82
		c-0.13,3.52-0.67,6.86-1.57,9.66H45.07z M63.51,32.2H58.1c0.82-2.89,1.32-6.21,1.43-9.66h8.01C67.21,26.08,65.8,29.43,63.51,32.2z
		 M40.28,19.32h-8c0.21-2.3,0.86-4.47,1.87-6.44h6.79C40.58,14.87,40.35,17.03,40.28,19.32L40.28,19.32z M32.31,32.2H20.93
		c-2.66,0-4.83,2.17-4.83,4.83v19.32c0,2.66,2.17,4.83,4.83,4.83h52.56l0.54,3.22H9.66V25.76h19.91
		C30.11,28.04,31.03,30.21,32.31,32.2L32.31,32.2z M90.02,59.03l-3.76,3.76l4.83,4.83l-4.16,4.16l-4.83-4.83l-3.76,3.76l-2.33-14.01
		L90.02,59.03z M63.55,9.66h-5.43c-0.59-2.08-1.35-3.9-2.24-5.38C58.9,5.37,61.55,7.23,63.55,9.66z M43.92,4.28
		c-0.89,1.48-1.65,3.29-2.24,5.38h-5.43C38.26,7.23,40.91,5.37,43.92,4.28z M3.22,72.44V24.15c0-2.66,2.17-4.83,4.83-4.83h21.01
		c-0.04,0.53-0.08,1.07-0.08,1.61c0,0.54,0.03,1.08,0.07,1.61H9.66c-1.78,0-3.22,1.44-3.22,3.22v38.63c0,1.78,1.44,3.22,3.22,3.22
		h64.9l1.61,9.66H8.05C5.39,77.27,3.22,75.1,3.22,72.44L3.22,72.44z M75.66,91.76v3.22c0,0.89-0.72,1.61-1.61,1.61H25.76
		c-0.89,0-1.61-0.72-1.61-1.61v-3.22c0-0.89,0.72-1.61,1.61-1.61h48.29C74.94,90.15,75.66,90.87,75.66,91.76z M62.02,86.93H37.78
		c1.38-1.86,2.22-4.08,2.4-6.44h19.44C59.81,82.85,60.64,85.07,62.02,86.93z M91.76,77.27H76.33l5.77-5.77l4.83,4.83l8.72-8.72
		l-4.83-4.83l5.77-5.77v15.43C96.59,75.1,94.42,77.27,91.76,77.27z"/>
</g>
</svg>
