<?xml version="1.0" standalone="no"?>
<!DOCTYPE svg PUBLIC "-//W3C//DTD SVG 20010904//EN"
 "http://www.w3.org/TR/2001/REC-SVG-20010904/DTD/svg10.dtd">
<svg version="1.0" xmlns="http://www.w3.org/2000/svg"
 width="1018.000000pt" height="1018.000000pt" viewBox="0 0 1018.000000 1018.000000"
 preserveAspectRatio="xMidYMid meet">
<metadata>
Created by potrace 1.11, written by Peter Selinger 2001-2013
</metadata>
<g transform="translate(0.000000,1018.000000) scale(0.100000,-0.100000)"
fill="#000000" stroke="none">
<path d="M5700 7826 c0 -3 -72 -196 -167 -451 -31 -82 -62 -166 -69 -185 -7
-19 -42 -114 -79 -210 -37 -96 -68 -179 -69 -185 -2 -5 -7 -19 -11 -30 -21
-52 -47 -121 -50 -130 -1 -5 -7 -23 -14 -40 -24 -62 -52 -137 -136 -365 -48
-129 -90 -244 -95 -255 -4 -11 -18 -45 -30 -75 -12 -30 -23 -59 -25 -65 -1 -5
-5 -17 -8 -25 -3 -8 -29 -78 -57 -155 -29 -77 -56 -149 -61 -160 -4 -11 -56
-148 -114 -305 -58 -157 -108 -292 -112 -300 -3 -8 -7 -19 -9 -25 -1 -5 -8
-23 -15 -40 -6 -16 -13 -34 -15 -40 -2 -11 -170 -458 -184 -490 -16 -38 -62
-160 -65 -170 -1 -5 -5 -17 -8 -25 -3 -8 -60 -161 -127 -340 -67 -179 -144
-383 -171 -455 -28 -71 -52 -137 -54 -145 -2 -8 -18 -51 -35 -95 -17 -44 -32
-84 -33 -90 -2 -5 -6 -16 -10 -22 -5 -7 -5 -13 -1 -13 3 0 1 -6 -5 -14 -6 -7
-17 -33 -25 -57 -8 -24 -35 -98 -61 -164 -25 -66 -50 -131 -55 -145 -5 -14
-22 -63 -39 -109 -17 -46 -31 -85 -31 -87 0 -2 148 -4 329 -4 l329 0 78 208
c42 114 106 284 141 377 35 94 79 213 99 265 19 52 38 104 43 115 8 16 228
604 291 775 9 25 20 52 23 60 10 24 148 394 151 405 2 6 7 21 13 35 6 14 20
52 32 85 12 33 26 69 31 80 5 11 20 52 34 90 38 106 195 527 205 550 11 23
102 265 105 280 2 6 7 21 13 35 6 14 33 88 62 165 28 77 56 149 61 160 10 23
101 265 104 280 2 6 6 17 9 25 12 28 109 285 111 295 2 6 6 17 9 25 9 20 65
170 128 340 27 74 53 144 58 155 10 22 161 424 165 440 2 6 6 17 9 25 4 8 22
56 41 107 l33 92 -333 -1 c-184 0 -334 -1 -334 -2z"/>
<path d="M3080 7208 c-30 -17 -80 -44 -110 -61 -30 -17 -80 -43 -110 -59 -30
-16 -62 -33 -70 -39 -17 -10 -384 -208 -535 -289 -55 -29 -104 -56 -110 -60
-12 -8 -175 -96 -220 -119 -16 -8 -32 -17 -35 -20 -3 -3 -58 -33 -122 -66 -65
-33 -118 -63 -118 -67 0 -5 -9 -8 -19 -8 -11 0 -21 -3 -23 -7 -1 -5 -23 -19
-48 -31 -67 -35 -210 -112 -250 -135 -19 -11 -73 -40 -119 -64 -119 -63 -125
-67 -133 -78 -4 -5 -8 -6 -8 -1 0 5 -6 4 -12 -1 -7 -6 -49 -30 -93 -54 -44
-23 -107 -58 -140 -76 -33 -18 -85 -45 -115 -60 -30 -16 -60 -33 -67 -39 -6
-6 -26 -17 -45 -24 -18 -8 -35 -17 -38 -20 -3 -3 -32 -19 -65 -35 -33 -17 -62
-33 -65 -36 -3 -3 -18 -12 -35 -20 -29 -15 -159 -85 -260 -140 l-50 -28 -3
-469 c-2 -368 1 -472 10 -480 7 -5 47 -28 88 -50 41 -22 98 -52 125 -67 28
-15 77 -42 110 -60 33 -18 83 -45 110 -60 49 -28 299 -164 425 -232 81 -44
162 -89 218 -119 23 -13 86 -47 140 -75 53 -29 108 -60 122 -69 14 -9 40 -22
58 -29 17 -8 32 -17 32 -22 0 -5 5 -9 11 -9 9 0 313 -162 534 -286 92 -51 228
-124 232 -124 2 0 20 -10 41 -23 20 -13 81 -47 134 -75 101 -54 125 -67 288
-157 52 -29 131 -72 175 -95 44 -24 115 -63 159 -87 43 -23 79 -43 80 -43 0 0
1 249 1 553 l0 552 -300 152 c-165 83 -301 153 -302 154 -2 1 -6 2 -10 3 -10
2 -206 100 -224 112 -8 5 -16 9 -19 9 -13 1 -705 350 -708 357 -2 4 -9 8 -16
8 -7 0 -134 60 -282 134 l-269 134 218 106 c119 58 221 106 227 106 5 0 10 4
10 8 0 4 10 8 22 9 11 1 24 6 27 11 3 4 24 16 46 27 22 10 105 49 185 88 80
38 190 91 245 117 55 26 168 80 250 120 188 91 375 181 530 255 66 31 161 77
210 101 50 24 96 44 103 44 7 0 12 3 12 8 0 4 10 12 23 17 l22 10 0 553 c0
363 -3 552 -10 551 -5 0 -35 -14 -65 -31z"/>
<path d="M7034 6693 l1 -547 95 -47 c350 -174 753 -369 761 -369 5 0 9 -4 9
-10 0 -5 5 -10 12 -10 11 0 315 -144 358 -170 21 -12 184 -93 190 -94 3 -1
113 -55 245 -120 132 -65 286 -141 343 -168 56 -27 102 -52 102 -56 0 -7 -733
-375 -900 -452 -30 -14 -66 -32 -80 -40 -14 -8 -27 -15 -30 -15 -9 -3 -55 -25
-70 -35 -8 -5 -163 -82 -345 -171 -524 -257 -669 -330 -680 -340 -6 -6 -10
-207 -10 -558 -1 -581 -3 -561 40 -531 6 4 37 22 70 40 33 18 80 44 105 58 25
13 74 40 110 60 36 19 100 55 142 79 43 23 80 43 83 43 3 0 22 10 43 23 20 13
82 47 137 77 55 29 118 63 140 75 22 13 60 33 85 46 25 12 48 27 51 31 3 5 13
10 21 12 9 1 22 7 29 12 8 6 28 18 44 26 17 8 76 40 132 71 56 31 106 57 112
57 6 0 11 4 11 9 0 5 8 11 18 14 9 4 44 21 77 40 33 18 101 55 150 81 50 27
95 52 100 56 6 4 44 25 85 47 217 115 365 198 368 205 2 4 8 8 14 8 5 0 38 16
74 36 35 19 65 34 68 32 2 -2 12 4 22 13 11 9 53 34 94 55 41 21 77 41 80 44
3 3 38 23 79 44 41 21 88 46 105 55 17 9 33 18 36 21 3 3 23 14 45 25 22 11
73 39 113 62 39 24 72 40 72 36 0 -3 8 1 18 9 9 8 40 28 69 43 l52 27 -1 468
0 467 -41 23 c-23 12 -71 38 -107 58 -36 19 -90 48 -120 64 -30 17 -73 40 -95
52 -22 12 -80 44 -130 71 -49 26 -108 58 -130 70 -22 12 -85 46 -140 75 -55
30 -101 58 -103 62 -2 4 -12 8 -22 8 -10 0 -20 3 -22 8 -1 4 -25 19 -53 33
-58 30 -168 89 -240 129 -163 89 -277 151 -330 180 -59 32 -90 49 -230 125
-38 21 -95 51 -125 67 -30 16 -82 44 -115 62 -129 70 -202 110 -255 139 -30
16 -68 37 -85 46 -16 9 -38 22 -47 30 -10 8 -18 10 -18 6 0 -4 -8 -2 -17 6
-10 8 -36 24 -58 34 -22 11 -42 22 -45 25 -3 3 -29 16 -57 30 -29 14 -53 28
-53 33 0 4 -5 7 -11 7 -6 0 -76 36 -155 80 -80 44 -147 80 -149 80 -2 0 -26
13 -53 29 -27 16 -58 32 -69 35 -20 6 -20 1 -19 -541z"/>
</g>
</svg>
